<svg width="222" height="180" viewBox="0 0 222 180" fill="none" xmlns="http://www.w3.org/2000/svg">
<path d="M189.622 80.0618C195.017 72.9148 195.768 66.8179 191.409 58.9334C189.24 55.0095 185.3 51.9659 180.734 50.1101C176.195 48.2649 171.936 47.0049 166.911 46.3761C155.732 44.9768 146.309 38.4123 135.615 35.0073C133.596 34.3645 131.608 34.3182 129.515 34.7182C123.688 35.832 120.235 40.5453 117.106 44.85C113.43 49.9059 109.084 52.9879 102.653 56.0066C99.0589 57.6935 94.9364 58.4217 90.758 58.4288L59.9631 58.4805C57.0561 58.4853 54.1464 58.8596 51.4462 59.6782C-3.68909 76.3936 2.71117 109.013 36.4579 110.918C40.5369 111.148 44.4504 110.043 48.059 108.562C57.6331 104.635 64.8263 103.386 75.2195 105.182C78.5573 105.759 81.6883 107.099 84.5467 108.765C123.861 131.677 142.586 134.684 168.26 124.161C178.527 120.027 184.411 116.553 182.983 102.365C182.178 94.3691 184.675 86.6159 189.622 80.0618Z" fill="#FCEBBD" fill-opacity="0.59"/>
<path d="M44.7014 44.782C38.9668 47.6065 35.8125 51.6446 34.4183 58.4555C33.5353 62.7693 34.4888 67.259 36.633 71.1049C38.1007 73.7375 39.6704 76.0473 41.6539 78.2353C48.5173 85.8066 50.7573 96.9927 58.0601 104.141C58.3788 104.453 58.7212 104.734 59.0872 104.987C63.9428 108.344 70.3359 105.228 75.91 103.284C79.9692 101.869 83.7461 101.592 88.292 102.023C92.3281 102.406 96.1009 104.118 99.3938 106.483L117.561 119.532C119.841 121.169 122.368 122.472 125.071 123.228C168.2 135.285 181.819 108.798 162.641 91.8324C159.669 89.2035 155.753 88.052 151.858 87.299C144.454 85.868 139.474 83.5127 134.223 77.951C132.12 75.7244 130.697 72.949 129.662 70.0667C117.048 34.9209 106.695 24.0774 84.6338 20.2191C76.2752 18.6975 70.7585 18.5436 64.4103 28.242C59.6102 35.5752 52.5641 40.9096 44.7014 44.782Z" fill="#FCE2A4"/>
<path d="M75.6488 88.8373C75.4219 88.8388 75.1993 88.7847 75.0083 88.6815C74.8173 88.5784 74.666 88.4307 74.573 88.2565C74.3452 87.806 74.2662 87.312 74.3444 86.8269C74.4226 86.3417 74.6551 85.8833 75.0174 85.5002C75.161 85.3326 75.2383 85.1311 75.2383 84.9244C75.2383 84.7177 75.161 84.5162 75.0174 84.3485C74.8556 84.1343 74.6017 83.9809 74.3087 83.9205C74.0158 83.8601 73.7064 83.8973 73.4453 84.0244C73.1842 84.1514 72.9915 84.3585 72.9075 84.6023C72.8234 84.8462 72.8546 85.1079 72.9944 85.3329C73.0566 85.4512 73.0905 85.5786 73.0942 85.7079C73.0979 85.8372 73.0713 85.9659 73.0159 86.0866C72.9605 86.2072 72.8774 86.3175 72.7714 86.4111C72.6654 86.5048 72.5385 86.5799 72.398 86.6323C72.2575 86.6846 72.1061 86.7132 71.9525 86.7163C71.7989 86.7194 71.6461 86.697 71.5027 86.6504C71.3594 86.6037 71.2284 86.5338 71.1171 86.4446C71.0059 86.3553 70.9167 86.2485 70.8545 86.1302C70.639 85.7402 70.5273 85.3152 70.5273 84.885C70.5273 84.4548 70.639 84.0298 70.8545 83.6398C71.0925 83.305 71.4065 83.0129 71.7786 82.7803C72.1507 82.5476 72.5736 82.3789 73.0232 82.2839C73.4727 82.1888 73.9401 82.1692 74.3986 82.2262C74.8572 82.2832 75.2979 82.4157 75.6956 82.616C76.0933 82.8164 76.4403 83.0807 76.7166 83.394C76.993 83.7072 77.1934 84.0632 77.3063 84.4417C77.4192 84.8201 77.4425 85.2135 77.3748 85.5995C77.3071 85.9855 77.1497 86.3565 76.9117 86.6913C76.8064 86.7938 76.7357 86.9182 76.7069 87.0515C76.6781 87.1848 76.6923 87.3222 76.748 87.4493C76.8103 87.5676 76.8443 87.695 76.848 87.8244C76.8518 87.9537 76.8252 88.0824 76.7698 88.2031C76.7144 88.3237 76.6313 88.434 76.5252 88.5277C76.4192 88.6213 76.2922 88.6964 76.1516 88.7487C75.9939 88.8092 75.8222 88.8395 75.6488 88.8373Z" fill="#F79E1B" fill-opacity="0.33"/>
<path d="M80.9573 77.1331C80.7324 77.1327 80.5124 77.0777 80.3236 76.9747C80.1349 76.8717 79.9854 76.725 79.8932 76.5523C79.66 76.1034 79.577 75.6092 79.6532 75.1234C79.7295 74.6376 79.9621 74.1786 80.3259 73.7961C80.4695 73.6284 80.5468 73.4269 80.5468 73.2202C80.5468 73.0135 80.4695 72.812 80.3259 72.6444C80.1916 72.4827 80.0028 72.3588 79.7839 72.2886C79.5649 72.2184 79.326 72.2051 79.0981 72.2506C78.9298 72.2835 78.7723 72.3473 78.6368 72.4375C78.5013 72.5277 78.3913 72.642 78.3146 72.7723C78.2416 72.9032 78.2037 73.0461 78.2037 73.1907C78.2037 73.3353 78.2416 73.4781 78.3146 73.609C78.3935 73.7284 78.442 73.8604 78.457 73.9964C78.472 74.1325 78.4532 74.2697 78.4018 74.3993C78.3504 74.5289 78.2675 74.648 78.1584 74.7492C78.0493 74.8504 77.9164 74.9313 77.7681 74.9868C77.6198 75.0424 77.4594 75.0714 77.2971 75.0719C77.1348 75.0724 76.9742 75.0445 76.8254 74.9899C76.6766 74.9353 76.5429 74.8552 76.4329 74.7547C76.3229 74.6543 76.2389 74.5357 76.1864 74.4064C75.9781 74.0135 75.8743 73.587 75.8823 73.1568C75.8902 72.7266 76.0098 72.303 76.2326 71.9158C76.4553 71.5285 76.7759 71.187 77.1719 70.9149C77.5679 70.6429 78.0297 70.447 78.5251 70.3409C79.2284 70.1957 79.9678 70.2372 80.6419 70.4598C81.3161 70.6824 81.8919 71.0751 82.2903 71.5842C82.6887 72.0932 82.8902 72.6935 82.8672 73.3028C82.8442 73.9121 82.5978 74.5005 82.1618 74.9872C82.0556 75.0892 81.9834 75.2131 81.9526 75.3462C81.9218 75.4794 81.9335 75.617 81.9864 75.7451C82.1129 75.9828 82.1224 76.2529 82.0128 76.4965C81.9033 76.74 81.6835 76.9371 81.4017 77.0445C81.2619 77.0983 81.1109 77.1284 80.9573 77.1331Z" fill="#F79E1B" fill-opacity="0.33"/>
<path d="M89.775 79.279C89.6318 79.2787 89.4897 79.2587 89.3541 79.22C89.2042 79.18 89.0654 79.1151 88.9461 79.029C88.8267 78.9429 88.7291 78.8375 88.6593 78.7189C88.5894 78.6004 88.5487 78.4712 88.5395 78.3391C88.5303 78.207 88.5528 78.0747 88.6057 77.9501C88.8202 77.4961 89.1772 77.0997 89.6386 76.8033C90.0999 76.5068 90.6483 76.3214 91.225 76.2668C91.4293 76.2431 91.6224 76.1743 91.7849 76.0674C91.9474 75.9606 92.0735 75.8194 92.1503 75.6584C92.2271 75.4973 92.2519 75.322 92.2222 75.1502C92.1926 74.9784 92.1095 74.8163 91.9815 74.6803C91.8534 74.5442 91.6849 74.4391 91.493 74.3756C91.3011 74.3121 91.0926 74.2924 90.8888 74.3186C90.685 74.3447 90.493 74.4158 90.3323 74.5246C90.1716 74.6333 90.0479 74.7759 89.9738 74.9379C89.8615 75.1803 89.6398 75.3753 89.3571 75.4804C89.0744 75.5856 88.7538 75.5923 88.4654 75.499C88.3218 75.4531 88.1903 75.3839 88.0785 75.2953C87.9667 75.2066 87.8768 75.1003 87.8138 74.9824C87.7508 74.8644 87.716 74.7372 87.7115 74.608C87.7069 74.4788 87.7326 74.35 87.7871 74.2292C88.0095 73.7438 88.3803 73.3165 88.8619 72.9906C89.3435 72.6646 89.9188 72.4515 90.5297 72.3728C91.1406 72.2942 91.7653 72.3527 92.3406 72.5426C92.9159 72.7325 93.4215 73.047 93.8061 73.4542C94.1906 73.8614 94.4406 74.3469 94.5307 74.8615C94.6208 75.3762 94.5478 75.9017 94.3191 76.385C94.0903 76.8683 93.714 77.2921 93.2282 77.6136C92.7424 77.9351 92.1643 78.1429 91.5525 78.2159C91.3913 78.2241 91.2357 78.2686 91.1019 78.3448C90.9682 78.421 90.8613 78.5261 90.7924 78.649C90.7122 78.825 90.5738 78.9779 90.3934 79.0896C90.2131 79.2013 89.9985 79.267 89.775 79.279Z" fill="#F79E1B" fill-opacity="0.33"/>
<path d="M88.6053 81.9172H88.3714C88.2944 81.9065 88.2195 81.8866 88.1492 81.8581C88.0774 81.8385 88.0101 81.8085 87.9504 81.7695L87.775 81.6514C87.6683 81.556 87.5813 81.4462 87.5178 81.3266C87.4618 81.2076 87.434 81.0805 87.4359 80.9525C87.4094 80.8288 87.4094 80.7021 87.4359 80.5785C87.4964 80.4603 87.5838 80.3533 87.6932 80.2635C87.7433 80.216 87.8026 80.1761 87.8686 80.1453C87.9308 80.1071 87.9974 80.0741 88.0674 80.0469L88.2895 79.9977C88.4774 79.966 88.6716 79.9737 88.8551 80.02C89.0386 80.0664 89.2058 80.15 89.3419 80.2635C89.4548 80.3508 89.5427 80.4585 89.5992 80.5785C89.6546 80.701 89.6824 80.8312 89.6811 80.9624C89.6829 81.0903 89.6551 81.2174 89.5992 81.3364C89.5115 81.5162 89.3625 81.6701 89.1711 81.7787C88.9796 81.8873 88.7543 81.9458 88.5234 81.9467L88.6053 81.9172Z" fill="#F79E1B" fill-opacity="0.33"/>
<path d="M103.34 74.17C103.195 74.171 103.052 74.1476 102.919 74.1011C102.775 74.0552 102.644 73.9859 102.532 73.8973C102.42 73.8086 102.33 73.7023 102.267 73.5844C102.204 73.4665 102.169 73.3393 102.165 73.21C102.16 73.0808 102.186 72.9521 102.24 72.8312C102.46 72.3783 102.82 71.9832 103.283 71.6871C103.746 71.3911 104.294 71.2049 104.871 71.1479C105.114 71.1183 105.339 71.0254 105.515 70.8824C105.691 70.7393 105.81 70.5533 105.854 70.3506C105.912 70.1071 105.859 69.854 105.705 69.642C105.552 69.4299 105.308 69.2747 105.024 69.2075C104.74 69.1402 104.436 69.1659 104.174 69.2793C103.911 69.3927 103.709 69.5855 103.608 69.819C103.578 69.962 103.51 70.0976 103.41 70.216C103.31 70.3344 103.181 70.4326 103.03 70.5038C102.88 70.5749 102.712 70.6171 102.54 70.6274C102.368 70.6377 102.195 70.6158 102.034 70.5632C101.874 70.5107 101.729 70.4288 101.61 70.3235C101.491 70.2182 101.401 70.092 101.347 69.9541C101.293 69.8161 101.276 69.6698 101.297 69.5256C101.318 69.3815 101.376 69.243 101.469 69.1201C101.652 68.7182 101.937 68.3549 102.305 68.0556C102.673 67.7563 103.113 67.5284 103.597 67.3876C104.082 67.2453 104.599 67.1944 105.11 67.2386C105.621 67.2828 106.114 67.4211 106.555 67.6436C107.176 67.9591 107.666 68.4289 107.956 68.9882C108.247 69.5475 108.324 70.1689 108.178 70.7669C108.032 71.3648 107.669 71.91 107.14 72.3273C106.611 72.7445 105.941 73.0135 105.222 73.097C105.06 73.1071 104.904 73.1535 104.771 73.2314C104.637 73.3093 104.53 73.4158 104.462 73.54C104.375 73.7297 104.221 73.8922 104.02 74.005C103.819 74.1178 103.581 74.1754 103.34 74.17Z" fill="#F79E1B" fill-opacity="0.33"/>
<path d="M102.147 76.8081H101.913L101.691 76.7491L101.468 76.6408C101.405 76.6035 101.346 76.5606 101.293 76.5128C101.073 76.3311 100.947 76.0834 100.942 75.8237C100.936 75.7582 100.936 75.6924 100.942 75.6269L101.012 75.4398L101.118 75.2725C101.159 75.2169 101.21 75.1671 101.27 75.1248C101.323 75.077 101.381 75.0341 101.445 74.9969L101.644 74.9083H101.866C102.016 74.8789 102.172 74.8789 102.322 74.9083H102.544L102.743 74.9969C102.809 75.0316 102.868 75.0748 102.918 75.1248C103.083 75.2619 103.195 75.4369 103.241 75.6277C103.287 75.8185 103.265 76.0165 103.177 76.1967C103.09 76.3769 102.94 76.5311 102.749 76.6399C102.557 76.7488 102.331 76.8073 102.1 76.8081H102.147Z" fill="#F79E1B" fill-opacity="0.33"/>
<path d="M110.823 82.5472C110.599 82.5467 110.38 82.492 110.192 82.3897C109.932 82.2484 109.749 82.0261 109.683 81.7715C109.617 81.5168 109.674 81.2506 109.841 81.0312C110.103 80.6994 110.448 80.4199 110.852 80.2124C111.256 80.0049 111.71 79.8745 112.18 79.8303C112.424 79.8001 112.65 79.7058 112.827 79.5608C113.003 79.4158 113.12 79.2276 113.162 79.0231C113.198 78.8544 113.18 78.6807 113.112 78.5194C113.043 78.3581 112.925 78.2146 112.771 78.1032C112.616 77.9919 112.429 77.9164 112.229 77.8844C112.029 77.8524 111.823 77.8649 111.63 77.9206C111.465 77.9673 111.314 78.0445 111.188 78.1467C111.063 78.2489 110.966 78.3735 110.905 78.5112C110.859 78.6408 110.781 78.7608 110.676 78.8639C110.572 78.9669 110.443 79.0507 110.299 79.1099C110.154 79.1692 109.996 79.2028 109.836 79.2084C109.675 79.2141 109.514 79.1918 109.364 79.1429C109.214 79.094 109.078 79.0196 108.964 78.9243C108.849 78.829 108.76 78.7149 108.7 78.5891C108.641 78.4633 108.613 78.3285 108.618 78.1931C108.623 78.0578 108.661 77.9248 108.73 77.8025C108.943 77.3101 109.308 76.8743 109.786 76.5397C110.265 76.2051 110.841 75.9837 111.455 75.8984C112.069 75.813 112.699 75.8667 113.281 76.0539C113.862 76.2411 114.374 76.5551 114.763 76.9637C115.153 77.3723 115.406 77.8608 115.497 78.379C115.588 78.8973 115.514 79.4266 115.282 79.9128C115.05 80.3989 114.669 80.8244 114.177 81.1455C113.685 81.4666 113.101 81.6717 112.484 81.74C112.352 81.7488 112.225 81.7815 112.11 81.8359C111.995 81.8903 111.895 81.965 111.817 82.055C111.716 82.2023 111.572 82.3251 111.398 82.4114C111.223 82.4976 111.026 82.5444 110.823 82.5472Z" fill="#F79E1B" fill-opacity="0.33"/>
<path d="M95.8437 88.3551C95.7005 88.3547 95.5583 88.3348 95.4227 88.296L85.6001 85.1263C85.4565 85.0804 85.3251 85.0112 85.2133 84.9226C85.1015 84.8339 85.0115 84.7276 84.9485 84.6097C84.8856 84.4917 84.8508 84.3645 84.8462 84.2353C84.8416 84.1061 84.8674 83.9773 84.9219 83.8565C85.0342 83.6141 85.256 83.4191 85.5386 83.314C85.8213 83.2088 86.1419 83.2021 86.4304 83.2954L96.2646 86.4848C96.5171 86.5687 96.7269 86.724 96.8583 86.924C96.9896 87.1239 97.0342 87.3561 96.9844 87.5808C96.9347 87.8054 96.7936 88.0084 96.5855 88.1551C96.3773 88.3017 96.1151 88.3829 95.8437 88.3846V88.3551Z" fill="#F79E1B" fill-opacity="0.33"/>
<path d="M93.5404 92.8829C93.396 92.884 93.2528 92.8606 93.1194 92.814L83.5074 89.7231C83.2408 89.6165 83.032 89.429 82.9228 89.1982C82.8136 88.9673 82.8122 88.7103 82.9187 88.4786C83.0252 88.247 83.2319 88.0577 83.4972 87.949C83.7626 87.8402 84.0669 87.8199 84.3493 87.8922L93.9614 90.9831C94.2138 91.0671 94.4237 91.2223 94.555 91.4223C94.6863 91.6223 94.7309 91.8545 94.6812 92.0791C94.6314 92.3037 94.4904 92.5068 94.2822 92.6534C94.0741 92.8001 93.8118 92.8812 93.5404 92.8829Z" fill="#F79E1B" fill-opacity="0.33"/>
<path d="M102.053 113.063C100.781 113.063 99.5371 112.745 98.4794 112.15C97.4218 111.555 96.5974 110.71 96.1107 109.72C95.6239 108.731 95.4965 107.642 95.7447 106.592C95.9928 105.542 96.6054 104.577 97.5048 103.82C98.4043 103.063 99.5502 102.547 100.798 102.338C102.045 102.13 103.339 102.237 104.514 102.646C105.689 103.056 106.693 103.75 107.4 104.641C108.107 105.531 108.484 106.578 108.484 107.648C108.481 109.084 107.802 110.459 106.597 111.474C105.391 112.489 103.757 113.06 102.053 113.063ZM102.053 104.203C101.243 104.203 100.452 104.405 99.7787 104.784C99.1057 105.162 98.5811 105.7 98.2713 106.33C97.9616 106.96 97.8805 107.652 98.0384 108.321C98.1964 108.989 98.5862 109.603 99.1585 110.085C99.7309 110.566 100.46 110.895 101.254 111.028C102.048 111.16 102.871 111.092 103.619 110.831C104.367 110.571 105.006 110.129 105.456 109.563C105.905 108.996 106.145 108.33 106.145 107.648C106.145 106.735 105.714 105.858 104.947 105.212C104.179 104.566 103.138 104.203 102.053 104.203Z" fill="#F57C00" fill-opacity="0.56"/>
<path d="M117.255 113.063C115.983 113.063 114.739 112.745 113.682 112.15C112.624 111.555 111.8 110.71 111.313 109.72C110.826 108.731 110.699 107.642 110.947 106.592C111.195 105.542 111.808 104.577 112.707 103.82C113.606 103.063 114.752 102.547 116 102.338C117.248 102.13 118.541 102.237 119.716 102.646C120.891 103.056 121.896 103.75 122.602 104.641C123.309 105.531 123.686 106.578 123.686 107.648C123.683 109.084 123.004 110.459 121.799 111.474C120.594 112.489 118.959 113.06 117.255 113.063ZM117.255 104.203C116.445 104.203 115.654 104.405 114.981 104.784C114.308 105.162 113.783 105.7 113.473 106.33C113.164 106.96 113.083 107.652 113.241 108.321C113.399 108.989 113.788 109.603 114.361 110.085C114.933 110.566 115.662 110.895 116.456 111.028C117.25 111.16 118.073 111.092 118.821 110.831C119.569 110.571 120.208 110.129 120.658 109.563C121.107 108.996 121.347 108.33 121.347 107.648C121.347 106.735 120.916 105.858 120.149 105.212C119.381 104.566 118.34 104.203 117.255 104.203Z" fill="#F57C00" fill-opacity="0.56"/>
<path d="M111.992 109.125H107.315C107.005 109.125 106.707 109.021 106.488 108.837C106.269 108.652 106.146 108.402 106.146 108.141C106.146 107.88 106.269 107.629 106.488 107.445C106.707 107.26 107.005 107.156 107.315 107.156H111.992C112.302 107.156 112.6 107.26 112.819 107.445C113.038 107.629 113.162 107.88 113.162 108.141C113.162 108.402 113.038 108.652 112.819 108.837C112.6 109.021 112.302 109.125 111.992 109.125Z" fill="#F57C00" fill-opacity="0.56"/>
<path d="M109.069 101.25C107.21 101.25 90.9443 101.142 90.9443 97.3127C90.9443 96.663 90.9443 94.6943 100.685 93.7591C100.995 93.7304 101.306 93.8066 101.55 93.9709C101.793 94.1352 101.949 94.3741 101.983 94.6352C102.017 94.8963 101.927 95.1581 101.731 95.363C101.536 95.5679 101.252 95.6991 100.942 95.7279C96.0193 96.2102 93.9262 96.9682 93.4117 97.3422C94.4758 98.0805 99.7496 99.311 109.069 99.311C118.389 99.311 123.686 98.0608 124.727 97.3127C124.166 96.9386 122.119 96.1807 117.196 95.6983C116.886 95.6696 116.602 95.5384 116.407 95.3334C116.212 95.1285 116.121 94.8667 116.156 94.6057C116.19 94.3446 116.346 94.1056 116.589 93.9413C116.832 93.777 117.143 93.7009 117.454 93.7296C127.194 94.6943 127.194 96.663 127.194 97.3127C127.194 101.142 110.929 101.25 109.069 101.25Z" fill="#F57C00" fill-opacity="0.56"/>
<path d="M117.839 98.297H100.299C100.128 98.2988 99.959 98.2692 99.8034 98.2102C99.6477 98.1512 99.5094 98.0642 99.3979 97.9554C99.2865 97.8466 99.2047 97.7186 99.1583 97.5803C99.1119 97.442 99.102 97.2969 99.1293 97.1551L101.468 85.3426C101.513 85.1097 101.656 84.898 101.87 84.7463C102.085 84.5945 102.357 84.5127 102.637 84.5157H115.5C115.781 84.5127 116.053 84.5945 116.267 84.7463C116.482 84.898 116.625 85.1097 116.67 85.3426L119.008 97.1551C119.036 97.2969 119.026 97.442 118.979 97.5803C118.933 97.7186 118.851 97.8466 118.74 97.9554C118.628 98.0642 118.49 98.1512 118.334 98.2102C118.179 98.2692 118.01 98.2988 117.839 98.297ZM101.679 96.3282H116.459L114.506 86.4845H103.631L101.679 96.3282Z" fill="#F57C00" fill-opacity="0.56"/>
<path d="M80.0223 108.239C78.8872 108.237 77.7774 107.956 76.8285 107.432C75.8795 106.908 75.1324 106.162 74.6784 105.286L59.8861 77.4677C59.5732 76.8752 59.4024 76.2365 59.3836 75.5883C59.3648 74.9401 59.4983 74.2952 59.7765 73.6906C60.0546 73.086 60.472 72.5336 61.0045 72.0651C61.537 71.5967 62.1743 71.2214 62.8796 70.961L87.6699 61.6192C87.8798 61.5419 88.112 61.5182 88.3378 61.551C88.5636 61.5838 88.7729 61.6717 88.9398 61.8039C89.1068 61.936 89.2239 62.1065 89.2767 62.2942C89.3295 62.4818 89.3156 62.6784 89.2368 62.8595L76.5727 90.7764C76.4087 91.1398 76.3315 91.5268 76.3455 91.9153C76.3596 92.3038 76.4646 92.6862 76.6546 93.0405C77.0316 93.7547 77.7297 94.314 78.5957 94.5958L88.0441 97.6375C88.198 97.6769 88.3406 97.7426 88.463 97.8305C88.5854 97.9184 88.6849 98.0266 88.7553 98.1484C88.8257 98.2701 88.8656 98.4028 88.8723 98.5381C88.8791 98.6734 88.8526 98.8084 88.7945 98.9347C88.7364 99.061 88.648 99.1758 88.5348 99.272C88.4216 99.3683 88.286 99.4438 88.1366 99.4939C87.9871 99.544 87.827 99.5676 87.6662 99.5632C87.5054 99.5588 87.3474 99.5266 87.2021 99.4685L77.7538 96.4267C76.3073 95.9578 75.1413 95.0245 74.512 93.8321C73.8826 92.6396 73.8416 91.2856 74.3977 90.0677L86.0913 64.3853L63.8736 72.7525C63.4471 72.9101 63.0621 73.1376 62.7412 73.4218C62.4202 73.706 62.1697 74.0411 62.0043 74.4076C61.8388 74.7741 61.7617 75.1647 61.7775 75.5566C61.7933 75.9485 61.9016 76.3338 62.0961 76.69L76.8885 104.548C77.0757 104.907 77.3459 105.231 77.6835 105.501C78.0211 105.771 78.4191 105.982 78.8545 106.121C79.2899 106.261 79.7539 106.326 80.2194 106.312C80.685 106.299 81.1427 106.208 81.5659 106.044L92.9203 101.772C93.0615 101.709 93.2165 101.672 93.3756 101.661C93.5348 101.651 93.6948 101.668 93.8457 101.712C93.9967 101.756 94.1354 101.825 94.2534 101.915C94.3713 102.006 94.466 102.116 94.5316 102.238C94.5972 102.361 94.6322 102.493 94.6347 102.628C94.6371 102.762 94.6068 102.896 94.5457 103.02C94.4846 103.144 94.3939 103.256 94.2793 103.35C94.1646 103.443 94.0285 103.516 93.8792 103.563L82.5247 107.836C81.7373 108.127 80.8819 108.265 80.0223 108.239Z" fill="#F57C00" fill-opacity="0.53"/>
<path d="M119.5 82.7046C119.355 82.7056 119.212 82.6822 119.079 82.6357C118.791 82.5411 118.559 82.3545 118.434 82.1165C118.31 81.8786 118.302 81.6087 118.412 81.3659L122.295 72.8116C122.622 72.0818 122.593 71.2725 122.214 70.5606C121.835 69.8487 121.137 69.2919 120.272 69.0119L94.043 60.566C93.6114 60.4279 93.1516 60.3629 92.6901 60.3748C92.2286 60.3866 91.7744 60.475 91.3535 60.6349C90.505 60.9523 89.8406 61.5399 89.5059 62.269L89.2487 62.8596C89.1949 62.9811 89.1133 63.0925 89.0084 63.1875C88.9035 63.2824 88.7774 63.3591 88.6373 63.413C88.4972 63.4669 88.3459 63.4971 88.192 63.5018C88.0381 63.5065 87.8846 63.4856 87.7402 63.4404C87.5959 63.3951 87.4635 63.3264 87.3507 63.2381C87.2379 63.1498 87.1469 63.0437 87.0828 62.9257C87.0188 62.8078 86.9829 62.6804 86.9773 62.5509C86.9717 62.4213 86.9965 62.2921 87.0503 62.1705L87.3192 61.5701C87.5939 60.9651 88.0077 60.4117 88.5368 59.9416C89.066 59.4715 89.7002 59.094 90.4031 58.8306C91.1059 58.5673 91.8636 58.4232 92.6327 58.4069C93.4018 58.3905 94.1672 58.502 94.8849 58.7351L121.102 67.1712C122.547 67.6364 123.714 68.5649 124.347 69.7531C124.981 70.9413 125.029 72.2925 124.481 73.5105L120.587 82.0746C120.503 82.2596 120.353 82.4187 120.159 82.5311C119.965 82.6436 119.735 82.704 119.5 82.7046Z" fill="#F57C00" fill-opacity="0.53"/>
</svg>
